<?xml version="1.0" encoding="UTF-8"?>
<svg xmlns="http://www.w3.org/2000/svg" xmlns:xlink="http://www.w3.org/1999/xlink" viewBox="0 0 250 250" width="250px" height="250px">
<g id="surface16201954">
<path style=" stroke:none;fill-rule:nonzero;fill:rgb(100%,100%,100%);fill-opacity:1;" d="M 250.3125 52.1875 C 241.074219 56.289062 231.171875 59.042969 220.761719 60.292969 C 231.386719 53.925781 239.550781 43.847656 243.378906 31.855469 C 233.457031 37.734375 222.421875 42.011719 210.722656 44.316406 C 201.347656 34.316406 187.988281 28.085938 173.203125 28.085938 C 144.804688 28.085938 121.777344 51.09375 121.777344 79.492188 C 121.777344 83.515625 122.246094 87.441406 123.125 91.210938 C 80.390625 89.0625 42.519531 68.59375 17.148438 37.480469 C 12.714844 45.097656 10.195312 53.925781 10.195312 63.339844 C 10.195312 81.171875 19.257812 96.914062 33.066406 106.152344 C 24.628906 105.878906 16.699219 103.554688 9.765625 99.707031 C 9.765625 99.921875 9.765625 100.136719 9.765625 100.351562 C 9.765625 125.273438 27.5 146.035156 50.996094 150.78125 C 46.699219 151.953125 42.148438 152.578125 37.460938 152.578125 C 34.140625 152.578125 30.917969 152.265625 27.773438 151.640625 C 34.335938 172.050781 53.320312 186.953125 75.800781 187.363281 C 58.222656 201.152344 36.054688 209.355469 11.953125 209.355469 C 7.792969 209.355469 3.710938 209.121094 -0.292969 208.632812 C 22.441406 223.242188 49.472656 231.738281 78.515625 231.738281 C 173.085938 231.738281 224.804688 153.398438 224.804688 85.46875 C 224.804688 83.242188 224.746094 80.996094 224.667969 78.808594 C 234.707031 71.5625 243.417969 62.5 250.3125 52.1875 Z M 250.3125 52.1875 "/>
</g>
</svg>
